/* XPM */
static char *_533487228667[] = {
/* columns rows colors chars-per-pixel */
"16 16 143 2 ",
"   c #9D0000",
".  c #A50000",
"X  c #A70000",
"o  c #A90000",
"O  c #AA0100",
"+  c #AC0900",
"@  c #AC0B02",
"#  c #AE0E00",
"$  c #AE1300",
"%  c #B11400",
"&  c #B11705",
"*  c #B21800",
"=  c #B21A00",
"-  c #B21B00",
";  c #B31C00",
":  c #B31D00",
">  c #B31F00",
",  c #B41F00",
"<  c #B31E07",
"1  c #B41F07",
"2  c #B42100",
"3  c #B52403",
"4  c #B62403",
"5  c #B62603",
"6  c #B62703",
"7  c #B72703",
"8  c #B62404",
"9  c #B62604",
"0  c #B72604",
"q  c #B72705",
"w  c #B62506",
"e  c #B62606",
"r  c #B72805",
"t  c #B72806",
"y  c #B82A04",
"u  c #B82A05",
"i  c #B7290F",
"p  c #B82B09",
"a  c #B92D0A",
"s  c #B92E0B",
"d  c #BA300D",
"f  c #B72A16",
"g  c #B92A1B",
"h  c #BC3614",
"j  c #BC3714",
"k  c #BC3817",
"l  c #BD3917",
"z  c #BC3819",
"x  c #BD3919",
"c  c #BD3A18",
"v  c #BD3A19",
"b  c #BD3A1A",
"n  c #BD3B1A",
"m  c #BD3B1B",
"M  c #BE3B1A",
"N  c #BE3C1A",
"B  c #BE3C1B",
"V  c #BD3A1C",
"C  c #BD3B1C",
"Z  c #BD3B1D",
"A  c #BE3B1C",
"S  c #BE3B1F",
"D  c #BE3C1F",
"F  c #B82C23",
"G  c #B92E26",
"H  c #BC3822",
"J  c #BE3A23",
"K  c #BE3E20",
"L  c #BF3F21",
"P  c #BE3E28",
"I  c #BB392E",
"U  c #BF4127",
"Y  c #C04124",
"T  c #C04128",
"R  c #C04228",
"E  c #C04229",
"W  c #C1462D",
"Q  c #C14630",
"!  c #C24830",
"~  c #C24931",
"^  c #C24936",
"/  c #C34C34",
"(  c #C34D36",
")  c #C44E34",
"_  c #C34D39",
"`  c #C34D3A",
"'  c #C44F38",
"]  c #C44E3A",
"[  c #C44E3B",
"{  c #C34E3E",
"}  c #C4503C",
"|  c #C5523E",
" . c #C6553F",
".. c #C75944",
"X. c #C75846",
"o. c #C85A44",
"O. c #C85C4B",
"+. c #C45853",
"@. c #C35955",
"#. c #CB6550",
"$. c #CC6557",
"%. c #CC6955",
"&. c #CD6957",
"*. c #CC695F",
"=. c #CE6E5C",
"-. c #D17456",
";. c #CB6C64",
":. c #CA6E66",
">. c #D37C6D",
",. c #D4817C",
"<. c #D7887A",
"1. c #DA9087",
"2. c #DC9686",
"3. c #DC9884",
"4. c #DE9C8C",
"5. c #E0A8A5",
"6. c #E3ABA4",
"7. c #E1ACA8",
"8. c #E6B5AF",
"9. c #E7B6B1",
"0. c #E6B6B5",
"q. c #E9BDB4",
"w. c #EAC1BA",
"e. c #EDC6BF",
"r. c #EAC5C4",
"t. c #EAC6C6",
"y. c #EECBC4",
"u. c #EDC9C7",
"i. c #EFCFCD",
"p. c #EFD2D2",
"a. c #F1D5D4",
"s. c #F4DDD7",
"d. c #F4DED7",
"f. c #F5E0E0",
"g. c #F6E3E5",
"h. c #F7E6E4",
"j. c #F7EAEA",
"k. c #F8E8EA",
"l. c #F8EDE8",
"z. c #FBF1F4",
"x. c #FEFCFD",
"c. c white",
"v. c None",
/* pixels */
"v.v.v.v.v.v.7 j d s v.v.v.v.v.v.",
"v.v.v.v.c N E B H L c B v.v.v.v.",
"v.v.v.c = e c.@.7.e.O y c v.v.v.",
"v.v.c C H P w.:.t.9.F Y C c v.v.",
"v.B 2 ^ c.c.{ g ] *.c.c.` , N v.",
"v.C t W i.a.) = i # $.u.` e B v.",
"c B e Q f.g.< ^ c.4.  1.=.2 B c ",
"c B e Q l.q.% e <.-.@ 6.#.8 C C ",
"c B t ! s.&.= &.1 O 2.s.! e c C ",
"C N 3 ] h.C f c.c.&  .j.} 3 B c ",
"v.B e o.5.$ = >.3.+ X.p.( t B v.",
"v.B 2 } c.0.O., . G k.c.{ , B v.",
"v.v.c c H o.z.:.,.9.I L c c v.v.",
"v.v.v.c : e c.+.r.y.O y c v.v.v.",
"v.v.v.v.c N U C U U c C v.v.v.v.",
"v.v.v.v.v.v.e h a p v.v.v.v.v.v."
};
