/* XPM */
static char *_533487215252[] = {
/* columns rows colors chars-per-pixel */
"64 64 105 2 ",
"   c #AA0300",
".  c #AD0A00",
"X  c #AF1100",
"o  c #B01500",
"O  c #B31B00",
"+  c #B52403",
"@  c #B72907",
"#  c #B82B07",
"$  c #B62609",
"%  c #B72A09",
"&  c #B92D0B",
"*  c #BA310E",
"=  c #B52411",
"-  c #B72811",
";  c #B82C14",
":  c #B92C19",
">  c #BB3413",
",  c #BC3816",
"<  c #BB341B",
"1  c #BD3A1A",
"2  c #BD3C23",
"3  c #BC3629",
"4  c #BD3B2D",
"5  c #BD3C32",
"6  c #BF401E",
"7  c #BF4022",
"8  c #BE4035",
"9  c #BE4138",
"0  c #C0411F",
"q  c #C04325",
"w  c #C14429",
"e  c #C24A2C",
"r  c #C04433",
"t  c #C34B32",
"y  c #C1473B",
"u  c #C2493B",
"i  c #C55237",
"p  c #C6543C",
"a  c #C7593F",
"s  c #C85A3F",
"d  c #C34E41",
"f  c #C55343",
"g  c #C75841",
"h  c #C95D45",
"j  c #C75848",
"k  c #C95E48",
"l  c #CA5F56",
"z  c #CA6347",
"x  c #CB624C",
"c  c #CB6452",
"v  c #CD6A54",
"b  c #CA605B",
"n  c #CE6D5B",
"m  c #CF715E",
"M  c #D1725D",
"N  c #CF7061",
"B  c #D17663",
"V  c #D27964",
"C  c #D37C6B",
"Z  c #D47F72",
"A  c #D5816D",
"S  c #D58473",
"D  c #D78976",
"F  c #D5847A",
"G  c #D88C7B",
"H  c #D98D82",
"J  c #DC9485",
"K  c #DC9886",
"L  c #DB958C",
"P  c #DD9B8B",
"I  c #DE9D94",
"U  c #DE9F99",
"Y  c #DFA093",
"T  c #DFA09A",
"R  c #E1A495",
"E  c #E0A39D",
"W  c #E2A99C",
"Q  c #E1A7A2",
"!  c #E4AEA5",
"~  c #E3ADAA",
"^  c #E5B2A6",
"/  c #E6B3AB",
"(  c #E7B8AF",
")  c #E6B7B3",
"_  c #E7B9B3",
"`  c #E8BBB2",
"'  c #E7BAB9",
"]  c #E9BCB9",
"[  c #EBC4BC",
"{  c #ECC7C0",
"}  c #EECDC6",
"|  c #EECFCB",
" . c #F0D3CD",
".. c #F1D5D2",
"X. c #F2D9D2",
"o. c #F5E2DD",
"O. c #F6E5E1",
"+. c #F7E9E5",
"@. c #F8EAE7",
"#. c #F9EDEA",
"$. c #FAF1EA",
"%. c #FCF6F5",
"&. c #FCF8F7",
"*. c #FFFFFF",
"=. c None",
/* pixels */
"=.=.=.=.=.=.=.=.=.=.=.=.=.=.=.=.=.=.=.=.=.=.=.=.=.=.=.=.=.=.=.=.=.=.=.=.=.=.=.=.=.=.=.=.=.=.=.=.=.=.=.=.=.=.=.=.=.=.=.=.=.=.=.=.",
"=.=.=.=.=.=.=.=.=.=.=.=.=.=.=.=.=.=.=.=.=.=.=.=.=.=.=.=.1 1 1 1 1 1 1 1 =.=.=.=.=.=.=.=.=.=.=.=.=.=.=.=.=.=.=.=.=.=.=.=.=.=.=.=.",
"=.=.=.=.=.=.=.=.=.=.=.=.=.=.=.=.=.=.=.=.=.=.=.=.1 1 1 1 1 1 1 1 1 1 1 1 1 1 1 1 1 =.=.=.=.=.=.=.=.=.=.=.=.=.=.=.=.=.=.=.=.=.=.=.",
"=.=.=.=.=.=.=.=.=.=.=.=.=.=.=.=.=.=.=.=.=.1 1 1 1 1 1 1 1 1 1 1 1 1 1 1 1 1 1 1 1 1 1 =.=.=.=.=.=.=.=.=.=.=.=.=.=.=.=.=.=.=.=.=.",
"=.=.=.=.=.=.=.=.=.=.=.=.=.=.=.=.=.=.=.1 1 1 1 1 1 1 1 1 1 1 1 1 1 1 1 1 1 1 , 1 , 1 1 1 1 1 =.=.=.=.=.=.=.=.=.=.=.=.=.=.=.=.=.=.",
"=.=.=.=.=.=.=.=.=.=.=.=.=.=.=.=.=.1 1 1 1 1 1 1 1 1 1 6 1 1 1 1 1 1 1 1 1 6 1 1 1 1 1 1 1 1 1 =.=.=.=.=.=.=.=.=.=.=.=.=.=.=.=.=.",
"=.=.=.=.=.=.=.=.=.=.=.=.=.=.=.1 1 1 1 1 1 1 1 1 + o o O o ; 0 1 1 & O + + O ; 0 1 1 1 1 1 1 1 1 1 =.=.=.=.=.=.=.=.=.=.=.=.=.=.=.",
"=.=.=.=.=.=.=.=.=.=.=.=.=.=.1 1 1 1 1 1 1 1 , > c C M M C e * 1 > t a p p g q > 1 1 1 1 1 1 1 1 1 1 =.=.=.=.=.=.=.=.=.=.=.=.=.=.",
"=.=.=.=.=.=.=.=.=.=.=.=.=.1 1 1 1 1 1 1 1 1 > @  .*.*.*.*.M o 1 o ( *.*.*.*.V o 6 1 1 1 1 1 1 1 1 1 1 =.=.=.=.=.=.=.=.=.=.=.=.=.",
"=.=.=.=.=.=.=.=.=.=.=.1 1 1 1 1 1 1 1 1 1 1 , + } *.*.*.*.v O 1 O ( *.*.*.*.V o 1 1 1 1 1 1 1 1 1 1 1 1 1 =.=.=.=.=.=.=.=.=.=.=.",
"=.=.=.=.=.=.=.=.=.=.1 1 1 1 1 1 1 1 1 1 1 1 > + } *.*.*.*.v O 1 o / *.*.*.*.V O 1 1 1 1 1 1 1 1 1 1 1 1 1 1 =.=.=.=.=.=.=.=.=.=.",
"=.=.=.=.=.=.=.=.=.=.1 1 1 1 1 1 1 1 1 1 1 1 > + } *.*.*.*.v o 1 O / *.*.*.*.V o 1 1 1 1 1 1 1 1 1 1 1 1 1 1 1 =.=.=.=.=.=.=.=.=.",
"=.=.=.=.=.=.=.=.=.1 1 1 1 1 , 1 1 1 1 1 1 1 > + } *.*.*.*.v o 1 O / *.*.*.*.V o 0 1 1 1 1 1 1 1 1 1 1 1 1 1 1 =.=.=.=.=.=.=.=.=.",
"=.=.=.=.=.=.=.=.1 1 1 1 1 1 1 1 6 1 1 1 1 1 , &  .*.*.*.*.M O 6 O ( *.*.*.*.A o 0 1 1 1 1 1 1 1 1 1 1 1 1 1 1 1 =.=.=.=.=.=.=.=.",
"=.=.=.=.=.=.=.1 1 1 1 1 1 1 1 & o O O O + O o . H [ L / ] 4   O   F ..] ] $.l   O O O O + O O o $ 1 , 1 1 1 1 1 1 =.=.=.=.=.=.=.",
"=.=.=.=.=.=.=.1 1 1 1 1 1 1 > t c k z k k k k v < X f : : S G B v j d f d # e c z k z k k k z c a > , 1 1 1 1 1 1 1 =.=.=.=.=.=.",
"=.=.=.=.=.=.1 1 , 1 1 1 1 1 o R *.*.*.*.*.*.*.*.H 4 *.s * S ^ o.*.*.*.*.&.= I *.*.*.*.*.*.*.*.*.] O , 1 1 1 1 1 1 1 =.=.=.=.=.=.",
"=.=.=.=.=.1 1 1 1 1 1 1 , 1 o R *.*.*.*.*.*.*.*.H u X.; # O o & i G [ *.*.: T *.*.*.*.*.*.*.*.*.` O , 1 1 1 , 1 1 1 1 =.=.=.=.=.",
"=.=.=.=.=.1 1 1 1 1 1 1 1 1 X Y *.*.*.*.*.*.*.*.H l Y o 0 6 1 > + o o 1 x & Y *.*.*.*.*.*.*.*.*.` O , 1 1 1 1 1 1 1 1 =.=.=.=.=.",
"=.=.=.=.1 1 1 1 1 1 1 , 1 1 o W *.*.*.*.*.*.*.*.H d n + 1 1 1 1 1 1 1 # o > * k | *.*.*.*.*.*.*.` O , 1 1 1 1 1 1 1 , 1 =.=.=.=.",
"=.=.=.=.1 1 1 1 1 1 1 1 1 1 o R *.*.*.*.*.*.*.*.R O 1 , 1 1 1 1 1 1 1 1 1 6 > X o C %.*.*.*.*.*.` O , 1 1 1 1 1 1 1 1 1 =.=.=.=.",
"=.=.=.=.1 1 1 1 1 1 1 1 1 1 o R *.*.*.*.*.*.*.*.W o > 6 1 1 1 1 > 1 1 1 1 1 1 0 >   < o.*.*.*.*.] O , 1 1 1 1 , 1 1 1 1 =.=.=.=.",
"=.=.=.1 1 , 1 1 1 1 1 1 1 1 + B ' Q Q Q Q Q Q ' B + 1 1 1 1 1 , # o o + 1 1 , 1 1 0 X 4 [ ~ E ) S # 1 1 1 1 1 1 1 1 1 1 1 =.=.=.",
"=.=.=.1 1 1 1 1 1 1 1 1 1 1 , 2 4 4 4 4 4 4 4 4 u 1 , 1 1 1 > & ` [ V w o $ 0 1 1 1 q + = y 3 5 4 , 1 1 1 1 1 1 1 1 1 1 1 =.=.=.",
"=.=.=.1 1 1 1 , 1 1 1 1 1 1 o W *.*.*.*.*.*.*.*./ O 1 1 1 1 + w *.*.*.*.` > + 2 1 1 1 & 1 #.*.*.[ O 1 1 1 1 , 1 1 , 1 1 , =.=.=.",
"=.=.1 1 1 , 1 1 1 1 1 1 1 1 X R *.*.*.*.*.*.*.*.n o 1 1 1 6 o V *.*.*.*.*.o.1 & 1 1 1 1 X ! *.*._ O > 1 1 1 1 1 1 1 1 1 1 1 =.=.",
"=.=.1 1 1 1 1 1 , 1 1 1 1 1 o R *.*.*.*.*.*.*.%.1 # 1 1 1 , o _ *.*.*.*.*.*.D o 6 1 1 1 o J *.*.( O > 1 1 1 1 1 1 1 , 1 1 1 =.=.",
"=.=.1 1 1 1 1 , 1 1 1 1 1 1 o R *.*.*.*.*.*.*.] O , 1 1 1 @ q &.*.*.*.*.*.*.S o 1 1 1 1 o K *.*.` O < 1 1 1 1 1 1 1 1 1 1 1 =.=.",
"=.=.1 1 1 1 1 1 1 1 1 , 1 1 o R *.*.*.*.*.*.*.C X 1 1 1 1 o C *.*.*.*.*.*.&.e + 1 1 1 1 o ! *.*.` O , 1 1 1 , 1 1 1 1 1 1 1 =.=.",
"=.1 1 1 1 1 1 1 1 1 1 1 1 1 o R *.*.*.*.*.*.*.w @ 1 1 1 1 , w x J  .*.*.%.x O 1 1 1 1 * & +.*.*.( O , 1 1 1 1 1 1 1 1 1 1 1 1 =.",
"=.1 1 1 1 1 1 1 1 1 1 1 1 1 X R *.*.*.*.*.*.[ O , 1 1 1 1 1 > o X + e i > o 1 1 1 1 1 X n *.*.*.[ o , 1 1 1 1 1 1 , 1 1 1 1 1 =.",
"=.1 1 1 1 1 , 1 1 1 1 1 1 1 O L *.o.O.O.o.*.S o 1 1 1 1 1 1 1 1 1 > + + & q 1 1 1 1 * + [ *.o.*.W + , 1 , 1 1 1 1 1 1 1 1 1 1 =.",
"=.1 1 1 1 1 1 1 1 1 1 1 1 1 1 , > > > > * 2 1 1 1 1 1 1 , > 6 1 1 1 6 1 1 1 1 1 1 O o 1 e * > > , 1 1 1 1 1 1 1 1 1 1 1 1 1 1 =.",
"=.1 1 1 1 1 1 1 1 1 1 1 , , + G O.} } } o.( @ > 1 1 1 1 > + o o # 1 1 1 1 1 1 > , z { @.} } } o.I + , 1 1 1 1 > 1 1 1 1 1 1 1 =.",
"=.1 1 1 1 < 1 1 1 , 1 1 1 1 o R *.*.*.*.*.W o 1 1 1 1 + p X.P h 1 o o , 6 1 1 > > ..*.*.*.*.*.*.] O > 1 1 1 1 1 1 1 1 1 1 1 1 =.",
"=.=.1 1 1 , 1 1 1 1 1 1 1 1 o R *.*.*.*.*.j O 1 1 1 2 X D *.*.*.%.` z o > 1 1 1 + 2 %.*.*.*.*.*.` O 1 1 1 1 1 1 1 1 1 1 1 1 =.=.",
"=.=.1 1 1 1 1 , 1 1 1 1 1 1 o R *.*.*.*.+.& * 1 1 1 , + { *.*.*.*.*.*.G O 1 1 1 1 . F *.*.*.*.*.( O > 1 1 1 1 1 1 1 1 1 1 1 =.=.",
"=.=.1 1 1 1 1 1 1 1 1 1 1 1 o R *.*.*.*.^ o 1 1 1 1 + 7 &.*.*.*.*.*.*.*.a O 6 1 1 + r *.*.*.*.*.` O , 1 1 1 1 1 1 1 1 1 1 1 =.=.",
"=.=.1 1 1 1 1 1 , 1 1 1 1 1 X R *.*.*.*.N o 1 1 1 1 X S *.*.*.*.*.*.*.*.C o 1 1 1 > # o.*.*.*.*.` O , 1 1 1 1 1 1 1 1 1 1 1 =.=.",
"=.=.=.1 1 1 1 1 1 1 1 1 1 1 o W *.*.*.%.2 # 1 1 1 > + { *.*.*.*.*.*.*.*.p O 1 1 1 > # X.*.*.*.*.[ O , 1 1 1 1 1 1 1 1 1 1 =.=.=.",
"=.=.=.1 1 1 1 1 1 1 1 1 1 , , 7 5 4 9 9 > , 1 1 1 > > ` *.*.*.*.*.*.*.[ + > 1 1 1 6 * 3 5 5 5 5 4 , 1 1 1 1 1 1 , 1 1 , 1 =.=.=.",
"=.=.=.1 1 1 1 1 1 , 1 1 1 1 + m ) U ~ f + 6 1 1 1 1 , + 2 B ^ #.*.*.X.2 + 6 1 1 1 + t ! U U T ~ S & 1 1 1 1 , 1 1 1 1 1 1 =.=.=.",
"=.=.=.=.1 1 1 1 1 1 1 1 1 1 X R *.*.*.a + 1 1 1 1 1 1 , + o o > a s $ $ q 1 1 1 1 . H *.*.*.*.*.] O > 1 1 1 1 1 1 , 1 1 1 =.=.=.",
"=.=.=.=.1 1 1 1 1 1 1 1 1 1 X W *.*.|   X * , 6 1 1 1 1 6 1 1 * + O * 2 1 1 1 1 # - @.*.*.*.*.*.` O < 1 1 1 1 1 1 1 1 1 =.=.=.=.",
"=.=.=.=.1 1 1 1 1 1 1 1 1 1 o R *.*.%.I z > X o + > 1 6 1 1 1 1 1 1 1 1 1 1 1 ,   L *.*.*.*.*.*.` O , 1 1 1 1 , 1 1 1 1 =.=.=.=.",
"=.=.=.=.=.1 1 1 1 1 1 , 1 1 o R *.*.*.*.*.#./ B w @ X o # 1 1 1 1 1 1 1 1 7 *   n *.*.*.*.*.*.*.( O , 1 1 , 1 1 1 1 1 =.=.=.=.=.",
"=.=.=.=.=.1 1 1 1 1 1 1 1 1 o R *.*.*.*.*.*.*.*.*.o.W v 7 O + 1 & > , * + o + L *.*.*.*.*.*.*.*.` O , 1 1 1 1 1 1 1 1 =.=.=.=.=.",
"=.=.=.=.=.=.1 1 1 1 1 1 1 1 o R *.*.*.*.*.*.*.*.*.*.*.*.%.} C # a e 7 t v K o.*.*.*.*.*.*.*.*.*.[ O , 1 1 1 1 1 1 1 =.=.=.=.=.=.",
"=.=.=.=.=.=.1 1 1 1 1 1 1 1 > e k g g g g g g g r 4 5 8 9 Z m > z 1 + : f b c h g p g g g g g k i , 1 1 1 1 1 1 1 1 =.=.=.=.=.=.",
"=.=.=.=.=.=.=.1 1 1 1 1 1 1 2 & O O O + O O O X F ~ T E / 4 . 6 o C ( R L I r o O + O O O O + o + 1 1 1 1 1 1 1 1 =.=.=.=.=.=.=.",
"=.=.=.=.=.=.=.=.1 1 1 1 1 1 1 1 1 1 1 1 6 1 > &  .*.*.*.*.M O 1 O _ *.*.*.*.A o 0 6 1 6 6 1 1 1 1 1 1 1 1 1 1 1 =.=.=.=.=.=.=.=.",
"=.=.=.=.=.=.=.=.=.1 1 1 1 1 1 1 1 1 1 1 1 1 > @ } *.*.*.*.v O 1 o / *.*.*.*.V o 1 1 1 1 1 1 1 1 1 1 1 1 1 1 1 =.=.=.=.=.=.=.=.=.",
"=.=.=.=.=.=.=.=.=.1 1 1 1 1 1 , 1 1 1 1 1 1 > # } *.*.*.*.v O 1 O / *.*.*.*.V o 1 1 1 1 1 1 1 1 1 1 1 1 1 1 1 =.=.=.=.=.=.=.=.=.",
"=.=.=.=.=.=.=.=.=.=.1 1 1 1 1 1 1 1 1 1 1 1 > + } *.*.*.*.v O 1 O / *.*.*.*.V o 6 1 1 1 1 1 , 1 1 1 1 1 1 1 =.=.=.=.=.=.=.=.=.=.",
"=.=.=.=.=.=.=.=.=.=.=.1 1 1 1 1 1 1 1 1 1 1 > + } *.*.*.*.v o 1 o / *.*.*.*.C o 1 1 1 1 1 1 1 1 1 , 1 1 1 =.=.=.=.=.=.=.=.=.=.=.",
"=.=.=.=.=.=.=.=.=.=.=.=.=.1 1 1 1 1 1 1 1 1 > + | *.*.*.*.n o 1 O _ *.*.*.*.C o 1 , 1 1 1 1 1 1 1 1 1 1 =.=.=.=.=.=.=.=.=.=.=.=.",
"=.=.=.=.=.=.=.=.=.=.=.=.=.=.1 1 1 1 1 1 1 1 1 > x V n M B e & 1 * v G A A G p * 1 1 1 1 1 1 1 1 1 1 =.=.=.=.=.=.=.=.=.=.=.=.=.=.",
"=.=.=.=.=.=.=.=.=.=.=.=.=.=.=.1 1 1 1 1 1 1 1 1 + o o O o > 1 1 0 + o o o o & 6 1 1 1 1 1 1 1 1 1 =.=.=.=.=.=.=.=.=.=.=.=.=.=.=.",
"=.=.=.=.=.=.=.=.=.=.=.=.=.=.=.=.=.1 1 1 1 1 1 1 1 1 1 1 1 1 1 1 1 1 1 1 1 1 1 1 1 1 1 1 1 1 1 =.=.=.=.=.=.=.=.=.=.=.=.=.=.=.=.=.",
"=.=.=.=.=.=.=.=.=.=.=.=.=.=.=.=.=.=.1 1 1 1 , 1 1 1 1 1 1 1 1 1 1 1 1 1 1 1 1 1 1 1 1 1 1 , =.=.=.=.=.=.=.=.=.=.=.=.=.=.=.=.=.=.",
"=.=.=.=.=.=.=.=.=.=.=.=.=.=.=.=.=.=.=.=.=.1 1 1 1 1 1 1 1 1 1 1 1 1 1 1 1 1 1 1 1 1 1 =.=.=.=.=.=.=.=.=.=.=.=.=.=.=.=.=.=.=.=.=.",
"=.=.=.=.=.=.=.=.=.=.=.=.=.=.=.=.=.=.=.=.=.=.=.1 1 1 1 1 1 1 1 1 1 1 1 1 1 1 1 1 1 =.=.=.=.=.=.=.=.=.=.=.=.=.=.=.=.=.=.=.=.=.=.=.",
"=.=.=.=.=.=.=.=.=.=.=.=.=.=.=.=.=.=.=.=.=.=.=.=.=.=.=.1 1 1 1 1 1 1 1 1 1 =.=.=.=.=.=.=.=.=.=.=.=.=.=.=.=.=.=.=.=.=.=.=.=.=.=.=.",
"=.=.=.=.=.=.=.=.=.=.=.=.=.=.=.=.=.=.=.=.=.=.=.=.=.=.=.=.=.=.=.=.=.=.=.=.=.=.=.=.=.=.=.=.=.=.=.=.=.=.=.=.=.=.=.=.=.=.=.=.=.=.=.=."
};
