/* XPM */
static char *_533487221498[] = {
/* columns rows colors chars-per-pixel */
"32 32 89 1 ",
"  c #9A0000",
". c #A30000",
"X c #AA0100",
"o c #AD0C00",
"O c #AF1100",
"+ c #B01600",
"@ c #B31B01",
"# c #B52303",
"$ c #B72905",
"% c #B82B04",
"& c #B6250A",
"* c #B7290D",
"= c #B82C0B",
"- c #BA320E",
"; c #B92D12",
": c #B7251C",
"> c #BB3413",
", c #BC3917",
"< c #BC3718",
"1 c #BD3B1A",
"2 c #BA3022",
"3 c #BE3E21",
"4 c #BE3D2A",
"5 c #BE3D31",
"6 c #BF411E",
"7 c #BF4023",
"8 c #BF422E",
"9 c #C04323",
"0 c #C1452C",
"q c #C2492F",
"w c #C04430",
"e c #C24A34",
"r c #C34E3D",
"t c #C55135",
"y c #C5533C",
"u c #C75543",
"i c #C75A44",
"p c #C85C46",
"a c #C75948",
"s c #C95D49",
"d c #CA614C",
"f c #CC6553",
"g c #CE6B54",
"h c #CB6559",
"j c #CE6E5D",
"k c #CF715E",
"l c #D0715F",
"z c #CC6C64",
"x c #D07463",
"c c #D17768",
"v c #D37B6C",
"b c #D47E74",
"n c #D6857B",
"m c #D98D7C",
"M c #D48173",
"N c #D68681",
"B c #D78884",
"V c #D98F87",
"C c #D88C8A",
"Z c #DC9687",
"A c #DB938A",
"S c #DF9F8F",
"D c #DC9793",
"F c #DD9C91",
"G c #DE9F98",
"H c #DFA094",
"J c #DFA09B",
"K c #E0A295",
"L c #E1A59C",
"P c #E1A7A4",
"I c #E3AAA1",
"U c #E4AEAA",
"Y c #E5B4AA",
"T c #E8BBB3",
"R c #EAC0BC",
"E c #ECC6C1",
"W c #EDCAC4",
"Q c #EFCFCB",
"! c #EFD1CF",
"~ c #F1D4CE",
"^ c #F1D5D3",
"/ c #F3DAD6",
"( c #F3DCDA",
") c #F5E1DE",
"_ c #F7E5E2",
"` c #F7E8EA",
"' c #FBF3F3",
"] c #FFFFFF",
"[ c None",
/* pixels */
"[[[[[[[[[[[[[[1111[[[[[[[[[[[[[[",
"[[[[[[[[[[[1111111111[[[[[[[[[[[",
"[[[[[[[[[111$@$6>##,6<1[[[[[[[[[",
"[[[[[[[1111,eue>1006,1111[[[[[[[",
"[[[[[[1111-=)]Y.j]]y@11111[[[[[[",
"[[[[[11111>=_]Y.l]]y@611111[[[[[",
"[[[[111>##@+_]Y s]]eX%##>111[[[[",
"[[[111,3ew00znxzMUZr5q0e3<111[[[",
"[[[111@f]]]]br&mFQjT]]]]l+111[[[",
"[[1111+g]]]]V0@@@03b]]]]x+1111[[",
"[[1111+f]]]]f+66@+-+:R]]x+6111[[",
"[[1111-eNbbBy$1>le@>&@MCt=1111[[",
"[11111&i((()p##7]]L;1+d(j@11111[",
"[11<11+f]]]'=-oS]]]i+@a]v+11111[",
"111111+f]]]Lo6&MQ]W;>+M]c+11<111",
"111111&i~W/f@3,@&9&<-XH~d&111111",
"111111=eZmm>,1;#o+,>qmSZy=111111",
"111111+g]]R+1+FTv;=&s]]]x+111111",
"[11111+g]]cO-=']]/>=oY]]x+11111[",
"[11113@s(_8%Oc]]]]e#+g((f@11111[",
"[[1111-qCz%6=yH)]I@1%yNNy-1111[[",
"[[1116+g]n.@>%O>0$1-O^]]j+1111[[",
"[[1111+f]`Hh7&@$#,=XC]]]x+1111[[",
"[[[111+f]]]]~Act-+2J]]]]k+111[[[",
"[[[111>3q00enPD4qcAc800e3,111[[[",
"[[[[111>##@+/]L.l]]4o%##>111[[[[",
"[[[[[11111>=_]Y.k]]y@111111[[[[[",
"[[[[[[1111-=(]Y.k]]y#11111[[[[[[",
"[[[[[[[1111,eu0>9ai3>1111[[[[[[[",
"[[[[[[[[[111#@$6>+@>111[[[[[[[[[",
"[[[[[[[[[[[1111111611[[[[[[[[[[[",
"[[[[[[[[[[[[[[1111[[[[[[[[[[[[[["
};
