/* XPM */
static char *_533487209073[] = {
/* columns rows colors chars-per-pixel */
"128 128 78 1 ",
"  c #A60000",
". c #A90100",
"X c #AD0A00",
"o c #AF1200",
"O c #B11600",
"+ c #B31C00",
"@ c #B62402",
"# c #B72906",
"$ c #B82A06",
"% c #B5220C",
"& c #B72A09",
"* c #B92D0B",
"= c #BA300E",
"- c #BB3514",
"; c #BC3817",
": c #BD3A1A",
"> c #BF3F21",
", c #BF401E",
"< c #BF4122",
"1 c #C0431F",
"2 c #C04425",
"3 c #C14629",
"4 c #C34A2D",
"5 c #C34D31",
"6 c #C55135",
"7 c #C65539",
"8 c #C7583C",
"9 c #C85A3F",
"0 c #C95D43",
"q c #CA6047",
"w c #CB634A",
"e c #CD6B53",
"r c #CF6F58",
"t c #CF7059",
"y c #D0745D",
"u c #D17762",
"i c #D37964",
"p c #D47D68",
"a c #D5826E",
"s c #D68572",
"d c #D78875",
"f c #D88976",
"g c #D88C79",
"h c #DA917E",
"j c #DB9483",
"k c #DD9886",
"l c #DD9A8B",
"z c #DF9E91",
"x c #DFA091",
"c c #E0A394",
"v c #E1A698",
"b c #E3AC9E",
"n c #E4AFA1",
"m c #E5B1A5",
"M c #E7B6AA",
"N c #E7B8AD",
"B c #E8B9AE",
"V c #E9BCB1",
"C c #EBC1B7",
"Z c #EBC4BB",
"A c #EDC8BF",
"S c #EECCC4",
"D c #F0CFC7",
"F c #EFD0C8",
"G c #F1D4CD",
"H c #F2D7D0",
"J c #F3DBD5",
"K c #F4DED9",
"L c #F5E3DE",
"P c #F7E5E1",
"I c #F7E8E5",
"U c #F8EAE7",
"Y c #F9EDE9",
"T c #FAF0EE",
"R c #FBF4F2",
"E c #FDF9F7",
"W c #FFFFFF",
"Q c None",
/* pixels */
"QQQQQQQQQQQQQQQQQQQQQQQQQQQQQQQQQQQQQQQQQQQQQQQQQQQQQQQQQQQQQQQQQQQQQQQQQQQQQQQQQQQQQQQQQQQQQQQQQQQQQQQQQQQQQQQQQQQQQQQQQQQQQQQQ",
"QQQQQQQQQQQQQQQQQQQQQQQQQQQQQQQQQQQQQQQQQQQQQQQQQQQQQQQQQQQQQQQQQQQQQQQQQQQQQQQQQQQQQQQQQQQQQQQQQQQQQQQQQQQQQQQQQQQQQQQQQQQQQQQQ",
"QQQQQQQQQQQQQQQQQQQQQQQQQQQQQQQQQQQQQQQQQQQQQQQQQQQQQQQQQQQ:::::::::::QQQQQQQQQQQQQQQQQQQQQQQQQQQQQQQQQQQQQQQQQQQQQQQQQQQQQQQQQQ",
"QQQQQQQQQQQQQQQQQQQQQQQQQQQQQQQQQQQQQQQQQQQQQQQQQQQQQ::::::::::::::::::::::QQQQQQQQQQQQQQQQQQQQQQQQQQQQQQQQQQQQQQQQQQQQQQQQQQQQQ",
"QQQQQQQQQQQQQQQQQQQQQQQQQQQQQQQQQQQQQQQQQQQQQQQQQ::::::::::::::::::::::::::::::QQQQQQQQQQQQQQQQQQQQQQQQQQQQQQQQQQQQQQQQQQQQQQQQQ",
"QQQQQQQQQQQQQQQQQQQQQQQQQQQQQQQQQQQQQQQQQQQQQQ:::::::::::::::::::::::::::::::::::::QQQQQQQQQQQQQQQQQQQQQQQQQQQQQQQQQQQQQQQQQQQQQ",
"QQQQQQQQQQQQQQQQQQQQQQQQQQQQQQQQQQQQQQQQQQQ::::::::::::::::::::::::::::::::::::::::::QQQQQQQQQQQQQQQQQQQQQQQQQQQQQQQQQQQQQQQQQQQ",
"QQQQQQQQQQQQQQQQQQQQQQQQQQQQQQQQQQQQQQQQ::::::::::::::::::::::::::::::::::::::::::::::::QQQQQQQQQQQQQQQQQQQQQQQQQQQQQQQQQQQQQQQQ",
"QQQQQQQQQQQQQQQQQQQQQQQQQQQQQQQQQQQQQQ::::::::::::::::::::::::::::::::::::::::::::::::::::QQQQQQQQQQQQQQQQQQQQQQQQQQQQQQQQQQQQQQ",
"QQQQQQQQQQQQQQQQQQQQQQQQQQQQQQQQQQQQ::::::::::::::::::::::::::::::::::::::::::::::::::::::::QQQQQQQQQQQQQQQQQQQQQQQQQQQQQQQQQQQQ",
"QQQQQQQQQQQQQQQQQQQQQQQQQQQQQQQQQQ:;::::::::::::::::::::::::::::::::::::::::::::::::::::::::::QQQQQQQQQQQQQQQQQQQQQQQQQQQQQQQQQQ",
"QQQQQQQQQQQQQQQQQQQQQQQQQQQQQQQQQ::::::::::::::::::::::::::::::::::::::::::::::::::::::::::::::QQQQQQQQQQQQQQQQQQQQQQQQQQQQQQQQQ",
"QQQQQQQQQQQQQQQQQQQQQQQQQQQQQQQ::::::::::::::::::::::::::::::::::::::::::::::::::::::::::::::::::QQQQQQQQQQQQQQQQQQQQQQQQQQQQQQQ",
"QQQQQQQQQQQQQQQQQQQQQQQQQQQQQQ::::::::::::::::::;;-;-;----;::::::::::,:::::::::::::::::::::::::::::QQQQQQQQQQQQQQQQQQQQQQQQQQQQQ",
"QQQQQQQQQQQQQQQQQQQQQQQQQQQQ::::::::::::::::::::*+@@@@+@@+*,:::::>-+++++++++$:::::::::::::::::::::::QQQQQQQQQQQQQQQQQQQQQQQQQQQQ",
"QQQQQQQQQQQQQQQQQQQQQQQQQQQ:::::::::::::::::::;#fDVVVVVVVGs$;::::=6piipiiiiaw-:::::::::::::::::::::::QQQQQQQQQQQQQQQQQQQQQQQQQQQ",
"QQQQQQQQQQQQQQQQQQQQQQQQQQ::::::::::::::::::::;@mWWWWWWWWWn+;::::+sWWWWWWWWWA$-:::::::::::::::::::::::QQQQQQQQQQQQQQQQQQQQQQQQQQ",
"QQQQQQQQQQQQQQQQQQQQQQQQQ:::::::::;:::::::::::;+mWWWWWWWWWn+;::::+pWWWWWWWWWZ@-:::::::::::::::::::::::::QQQQQQQQQQQQQQQQQQQQQQQQ",
"QQQQQQQQQQQQQQQQQQQQQQQ:::::::::::::::::::::::;@mWWWWWWWWWn+:::::+pWWWWWWWWWZ#-::::::::::::::::::::::::::QQQQQQQQQQQQQQQQQQQQQQQ",
"QQQQQQQQQQQQQQQQQQQQQQ:::::::::::::::::::::::;;+nWWWWWWWWWn+;::::+pWWWWWWWWWZ#-:::::::::::::::::::::::::::QQQQQQQQQQQQQQQQQQQQQQ",
"QQQQQQQQQQQQQQQQQQQQQ:::::::::::::::::::::::::;@mWWWWWWWWWb+;::::+pWWWWWWWWWZ#-::::::::::::::::::::::::::::QQQQQQQQQQQQQQQQQQQQQ",
"QQQQQQQQQQQQQQQQQQQQ::::::::::::::::::::::::::;+nWWWWWWWWWb+;::::+pWWWWWWWWWZ@-::::::::::::::;::::::::::::::QQQQQQQQQQQQQQQQQQQQ",
"QQQQQQQQQQQQQQQQQQQ:::::::::::::::::::::::::::;+mWWWWWWWWWn+;::::+pWWWWWWWWWZ#-::::::::::::::::::::::::::::::QQQQQQQQQQQQQQQQQQQ",
"QQQQQQQQQQQQQQQQQQQ:::::::::::::::::::::::::::;+nWWWWWWWWWb+;::::@pWWWWWWWWWZ@-::::::::::::::::::::::::::::::QQQQQQQQQQQQQQQQQQQ",
"QQQQQQQQQQQQQQQQQQ::::::::::::::::::::::::::::-@mWWWWWWWWWb+:::::+pWWWWWWWWWZ#-:::::::::::::::::::::::::::::::QQQQQQQQQQQQQQQQQQ",
"QQQQQQQQQQQQQQQQQ::::::::::::::::::::::::::::;;+nWWWWWWWWWb+;::::+pWWWWWWWWWZ@-::::::::::::::::::::::::::::::::QQQQQQQQQQQQQQQQQ",
"QQQQQQQQQQQQQQQQ:::::::::::::::::::::::::;::::;@mWWWWWWWWWn+;::::+pWWWWWWWWWZ#-:::::::::::::::::::::::::::::::::QQQQQQQQQQQQQQQQ",
"QQQQQQQQQQQQQQQ:::::::::::::::::::::::::::::::;+mWWWWWWWWWb+;::::+pWWWWWWWWWZ%-::::::::::::::::::::::::::::::::::QQQQQQQQQQQQQQQ",
"QQQQQQQQQQQQQQQ:::::::::::::::::::::::::::::::;+mWWWWWWWWWn+;::::+fWWWWWWWWWS@-;:::::::::::::::::::::::::::::::::QQQQQQQQQQQQQQQ",
"QQQQQQQQQQQQQQ:::::::::::::::::::;:::::;::::::;-wgaaaaaapgw=:::::@eFAZZZZZZHl*;::::::::;::;;::::::::::::::::::::::QQQQQQQQQQQQQQ",
"QQQQQQQQQQQQQ:::::::::::::::::-++++o++++++++++++Xo@o  X+OXX+++++++oXXXXXXX+=@++++++O+++o+++++++++*:::::::::::::::::QQQQQQQQQQQQQ",
"QQQQQQQQQQQQQ::::::::::::::::=3jkjjjjjjjjjjjjjjjk5@0xxf:0jMMxkjjjjjhgggjjg<+7lkjjjjjjjjjjjjjjjjjx0$::::::::::::::::QQQQQQQQQQQQQ",
"QQQQQQQQQQQQ:::::::::::::::::@8WWWWWWWWWWWWWWWWWWq.gWWl+2exGWWWWWWWWWWWWWW0.pWWWWWWWWWWWWWWWWWWWWkO:::::::::::::::::QQQQQQQQQQQQ",
"QQQQQQQQQQQQ:::::::::::::::::@8WWWWWWWWWWWWWWWWWW0XpWW4@:#++;elHWWWWWWWWWW0XiWWWWWWWWWWWWWWWWWWWWg+::::::::::::::::::QQQQQQQQQQQ",
"QQQQQQQQQQQ::::::::::::::::::#7WWWWWWWWWWWWWWWWWW0XpWS@-::::=+O#6sVRWWWWWW8XiWWWWWWWWWWWWWWWWWWWWg+::::::::::::::::::QQQQQQQQQQQ",
"QQQQQQQQQQ::::::::;::::::::::@7WWWWWWWWWWWWWWWWWW0.sWjO::::::::-@++<ecKWWW0XuWWWWWWWWWWWWWWWWWWWWg+:::::::::::::::::::QQQQQQQQQQ",
"QQQQQQQQQQ:::::::::::::::::::@7WWWWWWWWWWWWWWWWWW0XfW6@::::::::::::*++-4uM8XaWWWWWWWWWWWWWWWWWWWWf+:::::::::::::::::::QQQQQQQQQQ",
"QQQQQQQQQQ:::::::::::::::::::@7WWWWWWWWWWWWWWWWWW0XkL*;:::::::::::::::-@++:$qRWWWWWWWWWWWWWWWWWWWg+::::::::::::::::::::QQQQQQQQQ",
"QQQQQQQQQ::::::::::::::::::::#7WWWWWWWWWWWWWWWWWW0Xxm+::::::::::::::::::::;:*-iGWWWWWWWWWWWWWWWWWg+:::::::::::::::;::::QQQQQQQQQ",
"QQQQQQQQQ::::::::::::::::::::#7WWWWWWWWWWWWWWWWWW0Xju@:::::::::::::::::::::::*O@tJWWWWWWWWWWWWWWWg+:::::::::::::::::::::QQQQQQQQ",
"QQQQQQQQ:::::::::::::::::::::@7WWWWWWWWWWWWWWWWWW0+q4-:::::::::::::::::::::::::-O@fEWWWWWWWWWWWWWg+;::::::::::::::::::::QQQQQQQQ",
"QQQQQQQQ:::::::::::::::::::::@7WWWWWWWWWWWWWWWWWW0@--;:::::::::::::::::::::::::::=X5FWWWWWWWWWWWWf+:::::::::::::::::::::QQQQQQQQ",
"QQQQQQQ::::::::::::::::::::::#7WWWWWWWWWWWWWWWWWW0@::::::::::::::::::::::::::::::::@OlWWWWWWWWWWWg+;:::::::::::;:::::::::QQQQQQQ",
"QQQQQQQ::::::::::::::::::::::#7WWWWWWWWWWWWWWWWWW0@::::::::::::::::::::::::::::::::,*ogWWWWWWWWWWg+::::::::::::::::::::::QQQQQQQ",
"QQQQQQQ::::::::::::::::::::::@8WWWWWWWWWWWWWWWWWWq@:::::::::::::;-:::::::::::::::::::-OlWWWWWWWWWj+::::::::::::::::::::::QQQQQQQ",
"QQQQQQ:::::::::::::::::::::::-3lllllklkllkklkkllx4*:::::::::::::=++#-;:::::::::::::::>*&gzlllkllvq$:::::::::::::::::::::::QQQQQQ",
"QQQQQQ::::::::::::::::::::::::-............... ..%,::::::::::::+sHa4*++$:::::::::::::::;@O ..... +2:::::::::::::::::::::::QQQQQQ",
"QQQQQQ:::::::::::::::::::::::-<ipiiiiiiiiiiiiiiise=:::::::::::-$FWWEHmu:+%::::::::::::::*6diiiiis7-:::::::::::::::::::::::QQQQQQ",
"QQQQQQ:::::::::;:::::::::::::@7WWWWWWWWWWWWWWWWWWl+:::::::::::&4EWWWWWWRb4O-::::::::::::#7WWWWWWWj+;:::::::::::::::::::::::QQQQQ",
"QQQQQ::::::::::::::::::::::::@7WWWWWWWWWWWWWWWWWW5#:::::::::::+yWWWWWWWWWWh+*:::::::::::;+BWWWWWWg+::::::::::::::::::::::::QQQQQ",
"QQQQQ::::::::::::::::::::::::#7WWWWWWWWWWWWWWWWWS@-:::::::::::+nWWWWWWWWWWWn@;:::::::::::OsWWWWWWg+::::;:::::::::::::::::::QQQQQ",
"QQQQQ::::::::::::::::::::::::#7WWWWWWWWWWWWWWWWWjO:::::::::::=-IWWWWWWWWWWWWs+:::::::::::@0WWWWWWg+::::::::::::::::::::::::QQQQQ",
"QQQQQ::::::::::::::::::::::::@7WWWWWWWWWWWWWWWWW8@:::::::::::+eWWWWWWWWWWWWWZ@;::::::::::$4EWWWWWg+;:::::::::::;::::::::::::QQQQ",
"QQQQ:::::::::::::::::::::::::@7WWWWWWWWWWWWWWWWP;=:::::::::::+vWWWWWWWWWWWWWK;*::::::::::*2TWWWWWf+:::::::::::::::::::::::::QQQQ",
"QQQQ:::::::::::::::::::::::::#7WWWWWWWWWWWWWWWWn+;::::::::::--LWWWWWWWWWWWWWG*-::::::::::*2RWWWWWg+:::::::::::::::::::::::::QQQQ",
"QQQQ:::::::::::::::::::::::::#7WWWWWWWWWWWWWWWWt+:::::::::::+qWWWWWWWWWWWWWWV@;::::::::::#6WWWWWWg+;::::::::::::::::::::::::QQQQ",
"QQQQ:::::::::::::;:::::::::::#7WWWWWWWWWWWWWWWR<*:::::::::::+vWWWWWWWWWWWWWWg+:::::::::::+eWWWWWWg+:::::::::::::::::::::::::QQQQ",
"QQQQ::::::::::::::::::::::;::@7WWWWWWWWWWWWWWWM+;:::::::::;--JWWWWWWWWWWWWWU:$:::::::::::OjWWWWWWg+::::::::::::::::::::::::::QQQ",
"QQQ::::::::::::::::::::::::::@7WWWWWWWWWWWWWWWi+:::::::::::;:qsnPWWWWWWWWWE0+>::::::::::;@CWWWWWWg+::::::::::::::::::::::::::QQQ",
"QQQ::::::::::::::::::::::::::@7WWWWWWWWWWWWWWE<&:::::::::::::@o+-0jSRWWWWV3+::::::::::::#4WWWWWWWfO::::::::::::::::::::::::::QQQ",
"QQQ::::::::::::::::::::::::::@7WWWWWWWWWWWWWWV@-::::::::::::::::=@+@<qwq4@%:::::::::::::oaWWWWWWWf+::::::::::::::::::::::::::QQQ",
"QQQ::::::::::::::::::::::::::@7WWWWWWWWWWWWWWs+::::::::::::::::::::-*#@@$;:::::::::::::-@SWWWWWWWg+::::::::::::::::::::::::::QQQ",
"QQQ::::::::::::::::::::::::::@8WWWWWWWWWWWWWW4@::::::::::::::::::::::::::::::::::::::::+aWWWWWWWWg+::::::::::::::::::::::::::QQQ",
"QQQ::::::::::::::::::::::::::$7YRIUUUUUUUUUEA--:::::::::::::::::::::::::::::::::::::::*<LWIIUUUYWs+::::::::::::::::::::::::::QQQ",
"QQQ:::::::::::::::::::::::::::;;:;:;;:;;;::::::::::::::::::::::::::::::::::::::::::::;=<3;;:::::;::::::::::::::::::::::::::::QQQ",
"QQQ:::::::::::::::::::::::::::-@+@+@+@+@+@+@-:::::::::::::::::::::::::::::::::::::::@@*#+@@++@+@+*::::::::::::::::::;::::::::QQQ",
"QQQ::::::::::::::::::::::::::*5FGSSSSSSSSFHV:-:::::::::::;-:::::::::::::::::::::::@OqSGSSSSSSSSSLu@::::::::::::::::::::::::::QQQ",
"QQQ::::::::::::::::::::::::::#7WWWWWWWWWWWWN@-:::::::::::;@O@-::::::::::::::::::;;5bWWWWWWWWWWWWWj+:::::::::;::::::::::::::::QQQ",
"QQQ::::::::::::::::::::::::::#7WWWWWWWWWWWWt+:::::::::::@qGj8*++#-::::::::::::::@wWWWWWWWWWWWWWWWg+::::::::::::::::::::::::::QQQ",
"QQQ::::::::::::::::::::::::::@7WWWWWWWWWWWY:*:::::::::::OhWWWJva6&O@-:::::::::::;*sWWWWWWWWWWWWWWg+::::::::::::::::::::::::::QQQ",
"QQQQ:::::::::;::::::::::::;::#7WWWWWWWWWWWm+:::::::::::-#ZWWWWWWWGc0@+;::::::::::;XhWWWWWWWWWWWWWg+::::::::::::::::::::::::::QQQ",
"QQQQ:::::::::::::::::::::::::@7WWWWWWWWWWWu+:::::::::::#4WWWWWWWWWWWGe+=::::::::::=+AWWWWWWWWWWWWf+:::::::::::::::::::::::::QQQQ",
"QQQQ:::::::::::::::::::::::::#7WWWWWWWWWWR<$:::::::::::+aWWWWWWWWWWWWWc+-::::::::::+0WWWWWWWWWWWWg+;::::::::::::::::::::::::QQQQ",
"QQQQ:::::::::::::::::::::::::@7WWWWWWWWWWZ@-::::::::::;@VWWWWWWWWWWWWWWk+::::::::::;+ZWWWWWWWWWWWg+;::::::::::::::::::::::::QQQQ",
"QQQQ:::::::::::::::::::::::::#7WWWWWWWWWWl+:::::::::::&<RWWWWWWWWWWWWWWW7@::::::::::OaWWWWWWWWWWWg+::::::::::::;::::::::::::QQQQ",
"QQQQQ:::::::::::::::;::::::::#7WWWWWWWWWW8@:::::::::::+pWWWWWWWWWWWWWWWWc+;:::::::::@6WWWWWWWWWWWg+:::::::::::::::::::::::::QQQQ",
"QQQQQ::::::::::::::::::::::::@7WWWWWWWWWH=-::::::::::;+NWWWWWWWWWWWWWWWWM+;:::::::::=-LWWWWWWWWWWf+::::::::::::::::::::::::QQQQQ",
"QQQQQ::::::::::::::::::::::::@7WWWWWWWWWxo:::::::::::*>RWWWWWWWWWWWWWWWWm+;:::::::::-#AWWWWWWWWWWg+::::::::::::::::::::::::QQQQQ",
"QQQQQ::::::::::::::::::::::::#7WWWWWWWWWq@:::::::::::+tWWWWWWWWWWWWWWWWWl+::::::::::-@ZWWWWWWWWWWg+::::::::::::::::::::::::QQQQQ",
"QQQQQ::::::::::::::::::::::::@8WWWWWWWWP--:::::::::::+xWWWWWWWWWWWWWWWWWw+::::::::::-*SWWWWWWWWWWjO::::::::::::::::::::::::QQQQQ",
"QQQQQQ:::::::::::::::::::::::-<ggdddfdje*:::::::::::=-JWWWWWWWWWWWWWWWWG=-::::::::::;-ujdddddddfj0*:::::::::::::::::::::::QQQQQQ",
"QQQQQQ::::::::::::::::::::::;,-  ..   .@::::::::::::-:fZRWWWWWWWWWWWWWWe+:::;:::::::<=. .  .. .  %1:::::::::::::::::::::::QQQQQQ",
"QQQQQQ:::::::::::::::::::::::-<ggggffjp:;:::::::::::::++<evLWWWWWWWWWWc+::::::::::::*6jgfggggfggk0*:::::::::::::::::::::::QQQQQQ",
"QQQQQQQ::::::::::::::::::;:::@8WWWWWWWZ@;:::::::::::::::*++*8jZEWWWWRj@*::::::::::::olWWWWWWWWWWWjO::::::::::::::::::::::QQQQQQQ",
"QQQQQQQ::::::::::::::::::::::#7WWWWWWWg+:::::::::::::::::::=@+@2wipe:+-::::::::::::-*GWWWWWWWWWWWg+::::::::::::::::::::::QQQQQQQ",
"QQQQQQQ::::::::::::::;:::::::@7WWWWWWW7@::::::::::::::::::::::-&@++@*::::::::::::::+0WWWWWWWWWWWWf+::::::::;:::::::::::::QQQQQQQ",
"QQQQQQQQ:::::::::::::::::::::#7WWWWWWS@-::::::::::::::::::::::::::::::::::::::::::;+BWWWWWWWWWWWWf+:::::::::::::::::::::QQQQQQQQ",
"QQQQQQQQ:::::::::::::::::::::#7WWWWWWz.*;:::::::::::::::::::::::::::::::::::::::::+0WWWWWWWWWWWWWg+:::::::::::::::::::::QQQQQQQQ",
"QQQQQQQQQ::::::::::::::::::::@7WWWWWWYe=++#-:;:::::::::::::::::::::::::::::::::::-+SWWWWWWWWWWWWWg+:::::::::::::::::::::QQQQQQQQ",
"QQQQQQQQQ::::::::::::::::::::@7WWWWWWWWINp4@+@-::::::::::::::::::::::::::::::::::OuWWWWWWWWWWWWWWg+::::::::::::::::::::QQQQQQQQQ",
"QQQQQQQQQ::::::::::::::::::::#7WWWWWWWWWWWESj0=++#-:::::::::::::::::::::::::::::o5EWWWWWWWWWWWWWWg+::::::::::::::::::::QQQQQQQQQ",
"QQQQQQQQQQ::::::::::::::::::;#7WWWWWWWWWWWWWWWPnt4=++*::::::::::::::::;::::::::o5YWWWWWWWWWWWWWWWf+:::::::::::::::::::QQQQQQQQQQ",
"QQQQQQQQQQ:::::::::::::::::::#7WWWWWWWWWWWWWWWWWWWKce,++@-:::::::::::::::::::&oeWWWWWWWWWWWWWWWWWg+:::::::::::::::::::QQQQQQQQQQ",
"QQQQQQQQQQQ::::::::::::;:::::#7WWWWWWWWWWWWWWWWWWWWWWRVa6&o@*::::::::::;::;&o-vWWWWWWWWWWWWWWWWWWg+:;::::::::::::::::QQQQQQQQQQQ",
"QQQQQQQQQQQ::::::::::::::::::@7WWWWWWWWWWWWWWWWWWWWWWWWWWHle:*:;%=-;;;-=@+@<hRWWWWWWWWWWWWWWWWWWWg+::::::::::::::::::QQQQQQQQQQQ",
"QQQQQQQQQQQQ:::::::::::::::::@8WWWWWWWWWWWWWWWWWWWWWWWWWWWWWWj+<tq6<<46qpxKWWWWWWWWWWWWWWWWWWWWWWjO:::::::::::::::::QQQQQQQQQQQQ",
"QQQQQQQQQQQQQ::::::::::::::::-2sdssssssssssssssssssssssssssgxt@<dae000epkvcjfssssssfssssssssssssg0*::::::::::::::::QQQQQQQQQQQQQ",
"QQQQQQQQQQQQQ:::::::::::::::::;++++O++++O+++++++X... ..   X@O*>;@*%O++OXX...X++++O+O++++O+++++++O*2::::::::::::::::QQQQQQQQQQQQQ",
"QQQQQQQQQQQQQQ:::::::::::::::::::::::::::::::::*elgggggggle*:::::=4teeeeeeer0-;::::::::::::;;:::::::::::::::::::::QQQQQQQQQQQQQQ",
"QQQQQQQQQQQQQQQ:::::::::::::::::::::::::::::::;@mWWWWWWWWWm+;::::+aWWWWWWWWWS@-:::::::::::::::::::::::::::::::::::QQQQQQQQQQQQQQ",
"QQQQQQQQQQQQQQQ:::::::::::::::::::::::::::::::;+mWWWWWWWWWb+;::::+pWWWWWWWWWZ@;::::::::::::::::::::::::::::::::::QQQQQQQQQQQQQQQ",
"QQQQQQQQQQQQQQQQ::::::::::::::::::::::::::::::;@nWWWWWWWWWb+;::::@pWWWWWWWWWZ$;:::::::::::::::::::::::::::::::::QQQQQQQQQQQQQQQQ",
"QQQQQQQQQQQQQQQQQ:::::::::::::::::::::::::::::;+mWWWWWWWWWn+;::::+pWWWWWWWWWZ@-::::::::::::::::::::::::::::::::QQQQQQQQQQQQQQQQQ",
"QQQQQQQQQQQQQQQQQQ:::::::::::::::::::::::::;::;+nWWWWWWWWWn+;::::+pWWWWWWWWWZ@-:::::::::::::::::::::::::::::::QQQQQQQQQQQQQQQQQQ",
"QQQQQQQQQQQQQQQQQQQ:::::::::::::::::::::::::::;+mWWWWWWWWWb+;::::@pWWWWWWWWWZ@-:::::::::::::::::::::::::::::::QQQQQQQQQQQQQQQQQQ",
"QQQQQQQQQQQQQQQQQQQ:::::::::::::::::::::::::::;+nWWWWWWWWWb+;::::+pWWWWWWWWWZ@-::::::::::::::::::::::::::::::QQQQQQQQQQQQQQQQQQQ",
"QQQQQQQQQQQQQQQQQQQQ::::::::::::::::::::::::::;@mWWWWWWWWWn+;::::+pWWWWWWWWWZ$;:::::::::::::::::::::::::::::QQQQQQQQQQQQQQQQQQQQ",
"QQQQQQQQQQQQQQQQQQQQQ:::::::::::::::::::::::::;+nWWWWWWWWWb+;::::+pWWWWWWWWWZ@-::::::::::::::::::::::::::::QQQQQQQQQQQQQQQQQQQQQ",
"QQQQQQQQQQQQQQQQQQQQQQ::::::::::::::::::::::::;@mWWWWWWWWWb+:::::+pWWWWWWWWWZ@-:::::::::::::::::::::::::::QQQQQQQQQQQQQQQQQQQQQQ",
"QQQQQQQQQQQQQQQQQQQQQQQ:::::::::::::::::::::::;+nWWWWWWWWWn+;::::+pWWWWWWWWWZ@-::::::::::::::::::::::::::QQQQQQQQQQQQQQQQQQQQQQQ",
"QQQQQQQQQQQQQQQQQQQQQQQQ::::::::::::::::::::::;+mWWWWWWWWWb+;::::+pWWWWWWWWWZ@-::::::::::::::::::::;::::QQQQQQQQQQQQQQQQQQQQQQQQ",
"QQQQQQQQQQQQQQQQQQQQQQQQQQ::::::::::::::::::::;@mWWWWWWWWWn+:::::+sWWWWWWWWWD$-::::::::::::::::::::::::QQQQQQQQQQQQQQQQQQQQQQQQQ",
"QQQQQQQQQQQQQQQQQQQQQQQQQQQ:::::::::::::::::::;$aZMmmmMmMAa$:::::@tPGGGFGGGPc&;::::::::::::::::::::::QQQQQQQQQQQQQQQQQQQQQQQQQQQ",
"QQQQQQQQQQQQQQQQQQQQQQQQQQQQ::::::::::::::::::::*+@+@+@+++$:::::::;****==**$-:::::::::::::::::::::::QQQQQQQQQQQQQQQQQQQQQQQQQQQQ",
"QQQQQQQQQQQQQQQQQQQQQQQQQQQQQ::::::::::::::::::::;;;;;;;;;;:::::::;--=------;::::::::::::::::::::::QQQQQQQQQQQQQQQQQQQQQQQQQQQQQ",
"QQQQQQQQQQQQQQQQQQQQQQQQQQQQQQQ::::::::::::::::::::::::::::::::::::;::;:::;::::::::::::::::::::::QQQQQQQQQQQQQQQQQQQQQQQQQQQQQQQ",
"QQQQQQQQQQQQQQQQQQQQQQQQQQQQQQQQ::::::::::::::::::::::::::::::::::::::::::::::::::::::::::::::::QQQQQQQQQQQQQQQQQQQQQQQQQQQQQQQQ",
"QQQQQQQQQQQQQQQQQQQQQQQQQQQQQQQQQQ::::::::::::::::::::::::::::::::::::::::::::::::::::::::::::QQQQQQQQQQQQQQQQQQQQQQQQQQQQQQQQQQ",
"QQQQQQQQQQQQQQQQQQQQQQQQQQQQQQQQQQQQ:::::::::::::::::::::::::::::::::::::;::::::::::::::::::QQQQQQQQQQQQQQQQQQQQQQQQQQQQQQQQQQQQ",
"QQQQQQQQQQQQQQQQQQQQQQQQQQQQQQQQQQQQQQ::::::::::::::::::::::::::::::::::::::::::::::::::::QQQQQQQQQQQQQQQQQQQQQQQQQQQQQQQQQQQQQQ",
"QQQQQQQQQQQQQQQQQQQQQQQQQQQQQQQQQQQQQQQQ::::::::::::::::::::::::::::::::::::::::::::::::QQQQQQQQQQQQQQQQQQQQQQQQQQQQQQQQQQQQQQQQ",
"QQQQQQQQQQQQQQQQQQQQQQQQQQQQQQQQQQQQQQQQQQ::::::::::::::::::::::::::::::::::::::::::::QQQQQQQQQQQQQQQQQQQQQQQQQQQQQQQQQQQQQQQQQQ",
"QQQQQQQQQQQQQQQQQQQQQQQQQQQQQQQQQQQQQQQQQQQQQ::::::::::::::::::::::::::::::::::::::QQQQQQQQQQQQQQQQQQQQQQQQQQQQQQQQQQQQQQQQQQQQQ",
"QQQQQQQQQQQQQQQQQQQQQQQQQQQQQQQQQQQQQQQQQQQQQQQQ::::::::::::::::::::::::::::::::QQQQQQQQQQQQQQQQQQQQQQQQQQQQQQQQQQQQQQQQQQQQQQQQ",
"QQQQQQQQQQQQQQQQQQQQQQQQQQQQQQQQQQQQQQQQQQQQQQQQQQQQQ:::::::::::::::::::::::QQQQQQQQQQQQQQQQQQQQQQQQQQQQQQQQQQQQQQQQQQQQQQQQQQQQ",
"QQQQQQQQQQQQQQQQQQQQQQQQQQQQQQQQQQQQQQQQQQQQQQQQQQQQQQQQQ::::::::::::::QQQQQQQQQQQQQQQQQQQQQQQQQQQQQQQQQQQQQQQQQQQQQQQQQQQQQQQQQ",
"QQQQQQQQQQQQQQQQQQQQQQQQQQQQQQQQQQQQQQQQQQQQQQQQQQQQQQQQQQQQQQQQQQQQQQQQQQQQQQQQQQQQQQQQQQQQQQQQQQQQQQQQQQQQQQQQQQQQQQQQQQQQQQQQ",
"QQQQQQQQQQQQQQQQQQQQQQQQQQQQQQQQQQQQQQQQQQQQQQQQQQQQQQQQQQQQQQQQQQQQQQQQQQQQQQQQQQQQQQQQQQQQQQQQQQQQQQQQQQQQQQQQQQQQQQQQQQQQQQQQ"
};
