<?xml version="1.0" standalone="no"?>
<!DOCTYPE svg PUBLIC "-//W3C//DTD SVG 20010904//EN"
 "http://www.w3.org/TR/2001/REC-SVG-20010904/DTD/svg10.dtd">
<svg version="1.0" xmlns="http://www.w3.org/2000/svg"
 width="1024.000000pt" height="1024.000000pt" viewBox="0 0 1024.000000 1024.000000"
 preserveAspectRatio="xMidYMid meet">
<metadata>
Created by potrace 1.15, written by Peter Selinger 2001-2017
</metadata>
<g transform="translate(0.000000,1024.000000) scale(0.100000,-0.100000)"
fill="#bd3a1a" stroke="none">
<path d="M4680 10129 c-672 -66 -1238 -227 -1810 -514 -884 -443 -1623 -1138
-2115 -1990 -115 -198 -283 -553 -351 -740 -226 -620 -314 -1116 -314 -1775 0
-659 88 -1155 314 -1775 8 -22 40 -101 71 -175 465 -1107 1316 -2015 2395
-2555 567 -284 1139 -448 1780 -510 208 -20 732 -20 940 0 641 62 1213 225
1780 510 884 443 1623 1138 2115 1990 115 198 283 553 351 740 226 620 314
1116 314 1775 0 659 -88 1155 -314 1775 -68 187 -236 542 -351 740 -333 576
-797 1101 -1327 1501 -268 201 -495 342 -788 489 -567 285 -1139 448 -1780
510 -170 16 -759 19 -910 4z m-10 -1604 l0 -575 -425 0 -425 0 0 575 0 575
425 0 425 0 0 -575z m1510 -30 l0 -575 -425 0 -425 0 0 575 0 575 425 0 425 0
0 -575z m-2290 -1295 l0 -570 -765 0 -765 0 0 570 0 570 765 0 765 0 0 -570z
m485 551 c-22 -10 -45 -29 -51 -42 -6 -13 -39 -114 -74 -224 -34 -110 -84
-267 -110 -350 l-48 -150 -1 393 -1 392 163 0 162 0 -40 -19z m1585 -202 c0
-121 -3 -218 -7 -216 -5 3 -341 98 -748 211 -407 114 -749 211 -760 216 -12 5
296 9 748 9 l767 1 0 -221z m1940 -349 l0 -570 -382 0 -381 0 -90 95 c-104
111 -195 188 -327 275 -109 72 -353 195 -470 236 l-80 29 0 252 0 253 865 0
865 0 0 -570z m-2426 -701 c361 -101 505 -167 608 -277 100 -107 130 -232 94
-395 -59 -265 -234 -407 -500 -407 -113 0 -227 23 -527 107 -279 78 -280 78
-274 103 3 14 44 149 91 300 90 289 192 616 200 639 5 16 -9 19 308 -70z
m-1554 -61 c0 -20 -402 -1302 -412 -1315 -8 -10 -136 -13 -579 -13 l-569 0 0
670 0 670 780 0 c593 0 780 -3 780 -12z m3978 -655 l-3 -668 -407 -3 c-225 -1
-408 1 -408 5 0 3 22 38 49 77 118 171 193 392 221 646 18 164 -6 348 -65 506
-15 38 -29 77 -32 87 -5 16 15 17 321 17 l326 0 -2 -667z m-4448 -855 c-1 -7
-81 -269 -179 -583 l-178 -570 -367 -3 -366 -2 0 585 0 585 545 0 c430 0 545
-3 545 -12z m4445 -573 l0 -580 -470 0 -470 0 3 100 c8 232 -68 495 -193 670
-43 60 -182 205 -197 205 -4 0 -8 5 -8 10 0 6 5 10 11 10 27 0 167 67 242 116
l82 54 500 -3 500 -2 0 -580z m-2873 315 c329 -93 411 -119 503 -164 135 -66
217 -141 267 -244 29 -60 33 -78 36 -172 4 -123 -12 -212 -58 -324 -61 -146
-153 -239 -285 -288 -52 -20 -78 -22 -200 -21 -114 0 -158 5 -235 25 -153 40
-754 210 -766 217 -8 4 42 178 152 530 186 599 170 551 183 551 5 0 186 -50
403 -110z m-1992 -1083 c0 -7 -25 -93 -55 -190 -64 -205 -67 -238 -27 -275 29
-26 23 -25 762 -231 135 -38 430 -121 657 -185 227 -64 442 -123 478 -132 l65
-16 0 -44 0 -44 -1275 0 -1275 0 0 565 0 565 335 0 c270 0 335 -3 335 -13z
m4868 -554 l2 -563 -1390 0 -1390 0 0 25 c0 21 4 25 23 20 106 -24 426 -33
564 -15 348 46 609 166 818 375 180 180 283 367 391 713 3 10 106 12 491 10
l488 -3 3 -562z m-3228 -1318 l0 -575 -425 0 -425 0 0 575 0 575 425 0 425 0
0 -575z m1510 -20 l0 -575 -425 0 -425 0 0 575 0 575 425 0 425 0 0 -575z"/>
</g>
</svg>
